# xmcd CD database file
#
# Track frame offsets:
#	150
#	17639
#	34210
#	52645
#	67505
#	80913
#	103504
#	121261
#	137864
#	151778
#	172444
#	191453
#	216537
#
# Disc length: 3183 seconds
#
# Revision: 2
# Processed by: cddbd v1.4b41PL1 Copyright (c) Steve Scherf et al.
# Submitted via: Feurio! 1.60 - http://www.feurio.com
#
DISCID=a40c6d0d,ae0c6d0d
DTITLE=A Windham Hill Collection - A Celtic Season
DYEAR=1900
DGENRE=
TTITLE0=(Phil Cunningham and Manus Lunny) - When The Snow Melts
TTITLE1=(Triona Ni Dhomhnaill) - Solus
TTITLE2=(Kevin Burke and Micheal O Domhnaill - On A Cold Winter's Day/Christmas 
TTITLE2=Eve
TTITLE3=(Liam O'Flynn) - The Winter's End
TTITLE4=(Luka Bloom) - Ciara
TTITLE5=Cormac Breatnach) - Nollaig Na Mban
TTITLE6=(Maighread Ni Dhomhnaill and Donal Lunny) - Third Carol For Christmas Day
TTITLE7=(Nightnoise) - Snow On High Ground
TTITLE8=(Carlos Nunez) - Galician Carol
TTITLE9=(Altan) - Soillse Na Nollag
TTITLE10=(Johnny Cunningham) - King Holly, King Oak
TTITLE11=(Loreena Mckennitt) - Snow
TTITLE12=(Jeff Johnson and Brian Dunning) - We Follow A Star
EXTD=
EXTT0=(Phil Cunningham and Manus Lunny)
EXTT1=(Triona Ni Dhomhnaill)
EXTT2=(Kevin Burke and Micheal O Domhnaill
EXTT3=(Liam O'Flynn)
EXTT4=(Luka Bloom)
EXTT5=(Cormac Breatnach)
EXTT6=(Maighread Ni Dhomhnaill and Donal Lunny)
EXTT7=(Nightnoise)
EXTT8=(Carlos Nunez)
EXTT9=(Altan)
EXTT10=(Johnny Cunningham)
EXTT11=(Loreena Mckennitt)
EXTT12=(Jeff Johnson and Brian Dunning)
PLAYORDER=
